<?xml version="1.0" encoding="utf-8"?>
<svg xmlns="http://www.w3.org/2000/svg" viewBox="0 0 500 500">
  <g transform="matrix(0.069267, 0, 0, -0.069267, -105.594874, 631.044385)" fill="#000000" stroke="none">
    <path d="M5570 9037 c-107 -33 -151 -58 -230 -134 -72 -67 -140 -165 -184 -264 -13 -31 -60 -177 -102 -325 -43 -148 -79 -271 -81 -273 -1 -2 -29 8 -60 22 -183 82 -353 118 -583 124 -147 4 -194 2 -296 -15 -231 -40 -470 -137 -649 -263 -124 -88 -286 -252 -379 -384 -84 -119 -189 -324 -230 -446 -35 -108 -73 -287 -85 -401 -54 -494 112 -1005 444 -1365 92 -99 252 -230 366 -298 104 -61 310 -146 428 -175 56 -14 88 -26 86 -33 -2 -7 -29 -95 -60 -197 -69 -226 -116 -320 -195 -394 -108 -99 -237 -115 -297 -36 -6 8 -16 40 -23 72 -17 89 -69 138 -145 138 -111 0 -182 -99 -155 -217 32 -146 190 -238 405 -237 247 3 446 137 573 389 27 55 54 135 126 376 l26 86 102 7 c388 26 678 140 963 377 214 178 364 395 500 719 15 36 98 189 185 340 136 238 738 1311 783 1395 15 28 16 -82 17 -1367 l0 -1398 160 0 160 0 0 1648 c0 907 -2 1651 -4 1653 -2 2 -79 3 -170 1 l-165 -3 -107 -197 c-59 -108 -139 -255 -179 -327 -69 -124 -110 -199 -436 -790 l-143 -259 -17 119 c-53 362 -149 603 -345 867 -71 94 -218 240 -307 303 -31 22 -56 46 -57 54 0 21 148 517 180 601 74 191 181 304 306 325 80 13 146 -39 159 -125 23 -147 98 -217 212 -195 49 9 108 68 122 123 25 91 -19 212 -104 290 -82 75 -168 104 -320 109 -104 3 -130 0 -195 -20z m-1132 -1067 c45 -6 121 -22 169 -35 88 -25 293 -120 293 -136 0 -4 -67 -232 -149 -506 -207 -689 -483 -1611 -586 -1958 -48 -159 -88 -292 -90 -294 -8 -7 -153 42 -233 80 -144 66 -293 182 -391 303 -168 207 -258 400 -317 679 -35 167 -45 494 -20 667 54 366 190 656 415 881 105 104 182 161 300 219 187 93 392 127 609 100z m730 -415 c165 -205 266 -423 326 -705 27 -124 50 -303 44 -341 -2 -17 -64 73 -256 375 -139 218 -256 404 -259 412 -6 15 78 324 88 324 3 0 29 -29 57 -65z m-74 -873 c94 -147 219 -342 279 -435 92 -141 108 -171 103 -195 -16 -68 -82 -255 -118 -331 -89 -195 -255 -396 -421 -509 -103 -71 -262 -145 -367 -171 -86 -22 -230 -39 -230 -28 0 3 83 282 184 619 252 839 363 1214 377 1271 6 26 14 47 18 46 3 0 82 -120 175 -267z" style="fill: rgb(26, 74, 158);"/>
    <path d="M 3850.44 3211.21 C 3798.26 3169.87 3785.66 3101.57 3820.75 3049.45 C 3845.94 3011.7 3874.73 2996.42 3922.42 2996.42 C 3964.71 2996.42 4014.19 3025.18 4031.29 3059.33 C 4057.38 3110.56 4036.69 3186.95 3989.9 3214.81 C 3952.11 3236.38 3881.03 3235.48 3850.44 3211.21 Z" style="fill: rgb(26, 74, 146);"/>
    <path d="M 2185.02 3209.48 C 2098.65 3186.11 2059.96 3168.14 1990.68 3122.3 C 1818.83 3009.07 1718.96 2828.43 1706.36 2609.14 C 1688.37 2299.99 1853.92 2028.58 2116.64 1936.91 C 2393.76 1839.85 2685.28 1929.72 2851.73 2162.48 C 2974.09 2333.24 3006.48 2576.79 2935.41 2789.78 C 2867.02 2995.59 2709.57 3149.27 2508.93 3204.98 C 2424.35 3228.35 2261.5 3230.15 2185.02 3209.48 Z M 2440.55 3036.93 C 2639.39 2991.09 2774.35 2794.27 2774.35 2548.03 C 2774.35 2239.77 2539.52 2031.27 2251.6 2085.19 C 2095.95 2113.95 1955.59 2258.65 1920.5 2424.91 C 1906.1 2493.21 1907.9 2646.89 1924.1 2708.9 C 1965.49 2867.97 2093.25 3004.57 2230.91 3036.93 C 2278.6 3047.71 2392.86 3048.61 2440.55 3036.93 Z" style="fill: rgb(26, 74, 146);"/>
    <path d="M 7737.51 2558.05 L 7737.51 1903.79 L 7826.59 1906.49 L 7916.56 1909.19 L 7919.26 2203.06 C 7921.96 2490.65 7922.86 2497.84 7943.55 2544.57 C 7970.55 2604.79 8037.13 2665.9 8092.91 2681.18 C 8117.2 2688.37 8157.69 2691.06 8191.88 2687.47 C 8267.46 2682.07 8312.45 2654.21 8341.24 2594 C 8362.83 2551.76 8362.83 2546.37 8365.53 2230.03 L 8368.23 1908.29 L 8458.2 1908.29 L 8547.28 1908.29 L 8547.28 2232.72 C 8547.28 2611.08 8542.78 2647.92 8480.7 2737.8 C 8449.21 2784.53 8432.11 2798.91 8380.83 2824.97 C 8321.45 2855.53 8316.05 2856.42 8219.77 2856.42 C 8129.8 2856.42 8114.51 2853.73 8067.72 2832.16 C 8039.83 2818.68 7994.84 2788.12 7968.75 2762.96 L 7921.96 2718.92 L 7924.66 2965.17 L 7927.36 3211.41 L 7831.99 3211.41 L 7737.51 3211.41 L 7737.51 2558.05 Z" style="fill: rgb(26, 74, 146);"/>
    <path d="M 4651.41 2550.86 L 4651.41 1908.29 L 4745.88 1908.29 L 4840.35 1908.29 L 4840.35 2378.31 L 4840.35 2847.44 L 5055.39 2487.95 C 5174.16 2290.24 5276.73 2128.47 5283.02 2128.47 C 5294.72 2128.47 5425.18 2339.67 5611.43 2662.3 L 5717.6 2846.54 L 5720.3 2377.41 L 5722.1 1908.29 L 5814.77 1908.29 L 5906.55 1908.29 L 5906.55 2550.86 L 5906.55 3194.34 L 5817.47 3191.64 L 5729.3 3188.95 L 5544.85 2878.89 C 5443.18 2708.14 5344.21 2539.18 5324.41 2503.23 L 5288.42 2437.63 L 5205.65 2573.33 C 5160.66 2647.92 5058.99 2817.78 4979.81 2950.79 L 4835.85 3193.44 L 4744.08 3193.44 L 4651.41 3193.44 L 4651.41 2550.86 Z" style="fill: rgb(26, 74, 146);"/>
    <path d="M 3233.22 2955.98 L 3233.22 2843.64 L 3149.54 2843.64 L 3065.87 2843.64 L 3066.77 2765.46 L 3066.77 2686.37 L 3150.44 2683.67 L 3233.22 2680.98 L 3233.22 2401.48 C 3233.22 2171.41 3235.92 2112.1 3247.62 2069.86 C 3283.6 1942.24 3405.97 1874.84 3560.72 1900 C 3651.6 1914.38 3647.1 1908.09 3647.1 2004.25 C 3647.1 2050.98 3645.3 2088.73 3643.5 2088.73 C 3641.7 2088.73 3625.51 2082.44 3608.41 2075.25 C 3568.82 2059.07 3506.74 2058.17 3477.05 2073.45 C 3465.35 2078.84 3446.46 2095.92 3436.56 2109.4 C 3418.56 2133.66 3417.67 2144.45 3417.67 2408.67 L 3417.67 2681.88 L 3532.83 2681.88 L 3647.1 2681.88 L 3647.1 2762.76 L 3647.1 2843.64 L 3535.53 2843.64 L 3423.96 2843.64 L 3420.37 2877.79 C 3417.67 2895.77 3415.87 2946.1 3416.77 2990.13 L 3417.67 3068.32 L 3325.89 3068.32 L 3233.22 3068.32 L 3233.22 2955.98 Z" style="fill: rgb(26, 74, 146);"/>
    <path d="M 7169.78 3061.33 C 7169.78 3056.84 7169.78 3006.51 7170.68 2948.99 L 7171.58 2842.94 L 7091.5 2842.94 C 7047.41 2842.94 7009.63 2841.15 7007.83 2839.35 C 7006.03 2837.55 7005.13 2800.7 7006.93 2758.46 L 7009.63 2681.18 L 7090.6 2681.18 L 7170.68 2681.18 L 7170.68 2397.19 C 7170.68 2091.62 7176.08 2049.38 7219.26 1990.97 C 7261.55 1933.45 7300.24 1911.88 7383.02 1900.2 C 7428 1893.01 7463.09 1893.91 7508.08 1902 L 7571.06 1912.78 L 7573.76 1999.06 L 7576.46 2086.23 L 7542.27 2073.65 C 7464.89 2046.69 7390.22 2064.66 7365.92 2117.69 C 7352.43 2144.65 7350.63 2185.09 7350.63 2415.16 L 7350.63 2681.18 L 7467.59 2681.18 L 7585.46 2681.18 L 7582.76 2760.26 L 7580.06 2838.45 L 7465.79 2841.15 L 7350.63 2843.84 L 7350.63 2955.28 L 7350.63 3067.62 L 7260.65 3067.62 C 7211.17 3067.62 7170.68 3064.92 7169.78 3061.33 Z" style="fill: rgb(26, 74, 146);"/>
    <path d="M 6400.5 2848.34 C 6338.42 2833.96 6251.14 2792.62 6208.86 2756.67 L 6180.06 2732.4 L 6181.87 2644.33 C 6182.76 2594.9 6185.46 2555.36 6187.26 2555.36 C 6188.16 2555.36 6208.86 2569.74 6231.35 2586.81 C 6334.82 2665.9 6423 2695.56 6526.47 2687.47 C 6646.13 2677.58 6711.81 2617.37 6711.81 2517.61 L 6711.81 2474.47 L 6566.05 2474.47 C 6363.61 2474.47 6280.84 2452.9 6200.76 2380.11 C 6147.68 2332.48 6123.38 2275.86 6119.78 2189.58 C 6115.28 2097.92 6132.38 2042.2 6180.97 1986.48 C 6234.05 1926.26 6307.83 1896.6 6414.9 1892.11 C 6521.97 1887.62 6593.05 1908.29 6669.52 1967.6 L 6720.81 2007.15 L 6720.81 1957.72 L 6720.81 1908.29 L 6808.98 1908.29 L 6896.26 1908.29 L 6891.76 2265.07 C 6885.46 2680.28 6886.36 2677.58 6802.68 2762.96 C 6735.21 2830.36 6678.52 2851.93 6549.86 2857.32 C 6488.68 2859.12 6436.49 2856.42 6400.5 2848.34 Z M 6710.01 2256.09 C 6707.31 2180.6 6704.61 2168.91 6682.12 2139.26 C 6647.03 2093.42 6592.15 2063.76 6516.57 2051.18 C 6414.9 2034.11 6334.82 2061.07 6310.53 2121.28 C 6294.33 2159.03 6294.33 2226.43 6310.53 2256.99 C 6344.72 2323.49 6394.2 2337.87 6575.05 2338.77 L 6713.61 2339.67 L 6710.01 2256.09 Z" style="fill: rgb(26, 74, 146);"/>
    <path d="M 3833.34 2837.35 C 3829.75 2834.66 3827.05 2624.36 3827.05 2370.02 L 3827.05 1908.99 L 3926.02 1908.99 L 4024.99 1908.99 L 4024.99 2376.32 L 4024.99 2843.64 L 3932.32 2843.64 C 3881.03 2843.64 3836.04 2840.95 3833.34 2837.35 Z" style="fill: rgb(26, 74, 158);"/>
    <path d="M 2347.26 10447.8 C 2343.67 10445.1 2340.97 10234.8 2340.97 9980.48 L 2340.97 9519.45 L 2439.94 9519.45 L 2538.91 9519.45 L 2538.91 9986.78 L 2538.91 10454.1 L 2446.24 10454.1 C 2394.95 10454.1 2349.96 10451.4 2347.26 10447.8 Z" style="fill: rgb(26, 74, 158);"/>
    <path d="M 4104.67 2551.51 C 4096.3 2551.09 4090.02 2518.3 4090.02 2478.65 L 4090.02 2406.77 L 4320.48 2406.77 L 4550.94 2406.77 L 4550.94 2479.63 L 4550.94 2552.49 L 4335.15 2552.49 C 4215.72 2552.49 4110.95 2552.07 4104.67 2551.51 Z" style="fill: rgb(26, 74, 158);"/>
  </g>
</svg>